<?xml version="1.0" standalone="no"?>
<!DOCTYPE svg PUBLIC "-//W3C//DTD SVG 20010904//EN"
 "http://www.w3.org/TR/2001/REC-SVG-20010904/DTD/svg10.dtd">
<svg version="1.0" xmlns="http://www.w3.org/2000/svg"
 width="289.000000pt" height="294.000000pt" viewBox="0 0 289.000000 294.000000"
 preserveAspectRatio="xMidYMid meet">

<g transform="translate(0.000000,294.000000) scale(0.100000,-0.100000)"
fill="#000000" stroke="none">
<path d="M0 1470 l0 -1470 1445 0 1445 0 0 1470 0 1470 -1445 0 -1445 0 0
-1470z m1085 145 c72 -32 133 -61 137 -64 7 -6 -283 -141 -318 -149 -16 -4
-346 139 -339 147 3 2 77 37 167 77 153 69 163 72 192 60 17 -8 90 -39 161
-71z m421 -28 c26 -31 30 -62 13 -100 -16 -34 -49 -47 -124 -47 l-65 0 0 83
c0 46 3 87 8 91 4 4 38 6 76 4 60 -3 71 -7 92 -31z m198 27 c25 -10 38 -41 27
-63 -8 -14 -7 -22 4 -31 22 -18 18 -47 -7 -64 -15 -11 -46 -16 -95 -16 l-73 0
0 90 0 90 64 0 c35 0 72 -3 80 -6z m238 -84 l37 -85 -26 -3 c-16 -2 -32 3 -39
12 -15 21 -82 22 -90 1 -6 -15 -64 -22 -64 -7 0 4 16 44 37 90 l37 83 35 -3
c34 -3 37 -6 73 -88z m208 70 c0 -15 -7 -20 -30 -20 -29 0 -29 0 -32 -67 -3
-66 -4 -68 -30 -71 -27 -3 -27 -3 -30 65 -3 66 -4 68 -30 71 -20 2 -28 9 -28
23 0 17 8 19 90 19 83 0 90 -1 90 -20z m82 -47 l3 -68 30 0 30 0 3 68 c3 67 3
67 32 67 l30 0 0 -64 c0 -35 -3 -72 -6 -81 -8 -21 -56 -45 -89 -45 -33 0 -81
24 -89 45 -3 9 -6 46 -6 81 l0 64 30 0 c29 0 29 0 32 -67z m-1527 -105 c22
-10 25 -17 25 -61 0 -40 3 -47 13 -38 10 8 17 7 25 -1 9 -9 12 -3 12 25 0 20
2 37 4 37 2 0 28 -11 56 -24 58 -27 52 -28 165 24 127 58 115 61 115 -26 0
-72 -2 -78 -31 -105 -82 -76 -307 -76 -389 1 -28 26 -30 33 -30 104 0 42 2 76
5 76 2 0 16 -5 30 -12z"/>
<path d="M1390 1530 c0 -49 1 -50 30 -50 29 0 50 22 50 54 0 22 -28 46 -56 46
-22 0 -24 -4 -24 -50z"/>
<path d="M1620 1565 c0 -12 7 -15 25 -13 14 2 26 8 26 13 0 6 -12 11 -26 13
-18 2 -25 -1 -25 -13z"/>
<path d="M1620 1495 c0 -12 8 -16 33 -13 17 2 32 8 32 13 0 6 -15 11 -32 13
-25 3 -33 -1 -33 -13z"/>
<path d="M1856 1534 c-9 -22 -8 -24 9 -24 8 0 15 6 15 14 0 22 -17 28 -24 10z"/>
</g>
</svg>
